HIERARCHY
ROOT Hips
{
	OFFSET 0.0000 0.0000 0.0000
	CHANNELS 6 Xposition Yposition Zposition Zrotation Xrotation Yrotation
	JOINT Ab
	{
		OFFSET -0.0000 8.0846 -0.0000
		CHANNELS 3 Zrotation Xrotation Yrotation
		JOINT Chest
		{
			OFFSET -0.0000 25.0068 -0.0000
			CHANNELS 3 Zrotation Xrotation Yrotation
			JOINT Neck
			{
				OFFSET -0.0000 25.0068 0.0000
				CHANNELS 3 Zrotation Xrotation Yrotation
				JOINT Head
				{
					OFFSET -0.0000 10.7556 0.0000
					CHANNELS 3 Zrotation Xrotation Yrotation
					End Site
					{
						OFFSET -0.0000 16.6222 0.0000
					}
				}
			}
			JOINT LeftCollar
			{
				OFFSET -0.0000 25.0068 0.0000
				CHANNELS 3 Zrotation Xrotation Yrotation
				JOINT LeftShoulder
				{
					OFFSET 19.5556 -0.0000 0.0000
					CHANNELS 3 Zrotation Xrotation Yrotation
					JOINT LeftElbow
					{
						OFFSET 27.1828 0.0000 0.0000
						CHANNELS 3 Zrotation Xrotation Yrotation
						JOINT LeftWrist
						{
							OFFSET 23.3157 0.0000 0.0000
							CHANNELS 3 Zrotation Xrotation Yrotation
							End Site
							{
								OFFSET 0.0000 -14.6667 0.0000
							}
						}
					}
				}
			}
			JOINT RightCollar
			{
				OFFSET -0.0000 25.0068 0.0000
				CHANNELS 3 Zrotation Xrotation Yrotation
				JOINT RightShoulder
				{
					OFFSET -19.5556 0.0000 0.0000
					CHANNELS 3 Zrotation Xrotation Yrotation
					JOINT RightElbow
					{
						OFFSET -27.1828 0.0000 0.0000
						CHANNELS 3 Zrotation Xrotation Yrotation
						JOINT RightWrist
						{
							OFFSET -23.3157 0.0000 0.0000
							CHANNELS 3 Zrotation Xrotation Yrotation
							End Site
							{
								OFFSET -0.0000 -14.6667 0.0000
							}
						}
					}
				}
			}
		}
	}
	JOINT LeftHip
	{
		OFFSET 11.7333 0.0000 0.0000
		CHANNELS 3 Zrotation Xrotation Yrotation
		JOINT LeftKnee
		{
			OFFSET -0.0000 -40.8688 0.0000
			CHANNELS 3 Zrotation Xrotation Yrotation
			JOINT LeftAnkle
			{
				OFFSET -0.0000 -44.4337 0.0000
				CHANNELS 3 Zrotation Xrotation Yrotation
				End Site
				{
					OFFSET -0.0000 -4.8889 16.6222
				}
			}
		}
	}
	JOINT RightHip
	{
		OFFSET -11.7333 0.0000 0.0000
		CHANNELS 3 Zrotation Xrotation Yrotation
		JOINT RightKnee
		{
			OFFSET -0.0000 -40.8688 0.0000
			CHANNELS 3 Zrotation Xrotation Yrotation
			JOINT RightAnkle
			{
				OFFSET -0.0000 -44.4337 0.0000
				CHANNELS 3 Zrotation Xrotation Yrotation
				End Site
				{
					OFFSET -0.0000 -4.8889 16.6222
				}
			}
		}
	}
}
MOTION
Frames: 13
Frame Time: 0.010000
-5.5592 86.8545 80.4385 2.0229 359.8680 176.3947 358.6389 2.9875 357.2155 0.2651 12.6778 357.1488 6.3936 344.4545 2.7350 356.7503 14.5376 2.2761 340.1622 358.5836 8.0584 318.5987 39.7072 337.1790 31.4755 350.9500 329.5458 83.9129 357.8234 358.2312 19.9013 358.9932 354.2399 65.6175 34.0949 0.6551 342.3322 355.6433 27.5368 279.5547 353.7696 27.7061 358.2938 4.9042 356.3899 357.4630 10.9751 357.3821 358.3102 348.0692 20.1681 2.5079 331.5128 3.6209 0.5528 18.8049 359.4159 356.5929 351.3125 339.4427 
-5.4849 86.7069 79.7457 1.9010 359.9187 176.6297 358.4746 2.9519 357.2242 0.4738 12.8412 357.1298 6.4157 344.4390 2.6628 356.6398 14.5623 2.2160 340.0217 358.5888 7.9675 319.0439 39.7462 336.9461 31.7218 351.0105 329.8567 83.8307 357.6766 358.4262 19.7860 358.9913 354.1138 65.6905 33.8354 0.5069 342.5126 355.7245 27.4715 279.6383 353.8357 28.1368 358.2640 5.3103 356.3990 357.4201 11.1647 357.0575 358.4240 347.8220 20.1230 2.3027 331.5363 3.8575 0.5799 17.8474 359.4271 356.4469 351.2411 339.5536 
-5.4053 86.5602 79.0347 1.7760 359.9925 176.8829 358.4487 2.9279 357.1868 0.4737 12.9987 357.0916 6.4509 344.4606 2.6063 356.6011 14.5605 2.1620 340.0103 358.6233 7.7638 319.0929 39.3061 337.0725 31.6783 351.1254 329.7584 83.9721 357.8028 358.2385 19.7638 358.9679 353.9970 65.7670 33.6824 0.3225 342.6395 355.7584 27.4172 279.6910 353.8434 28.3408 358.2410 5.7831 356.3208 357.3534 11.2712 357.0490 358.3674 347.5989 19.8824 2.1155 331.5282 3.9923 0.5379 17.2307 359.7059 356.6370 351.0640 339.4359 
-5.3182 86.4154 78.3334 1.6723 0.0304 177.1379 358.4240 2.9162 357.1731 0.5117 13.0960 357.0731 6.4895 344.4955 2.5654 356.5472 14.5371 2.1256 339.9849 358.6492 7.5576 319.0452 38.7999 337.2958 31.4945 351.2271 329.5119 84.4750 358.0160 358.0258 19.7374 358.9537 353.9012 65.8177 33.5582 0.1323 342.7612 355.7945 27.3714 279.8532 353.8247 28.4327 358.2570 6.1235 356.3605 357.3212 11.5779 356.7596 358.2336 347.3003 19.7682 1.9515 331.4375 4.1763 0.5271 16.8825 359.6464 356.9146 350.8050 339.5309 
-5.2153 86.2740 77.6107 1.5926 0.0980 177.3809 358.3826 2.8991 357.1866 0.6066 13.2436 357.0726 6.6805 344.4123 2.5496 356.2652 14.6602 2.1213 339.9315 358.6676 7.4415 319.2154 38.5878 337.2979 31.4401 351.2334 329.4647 84.7824 358.1018 357.9846 19.6798 358.9499 353.8151 65.9211 33.3999 359.9255 342.8501 355.8169 27.3482 279.9017 353.7385 28.5798 358.3173 6.5028 356.4926 357.2981 11.8971 356.4231 358.0516 347.0320 19.6001 1.8134 331.4050 4.4464 0.5765 16.6953 359.4655 357.0633 350.4749 339.7172 
-5.1094 86.1352 76.8775 1.4878 0.1069 177.6915 358.3507 2.7800 357.1505 0.6821 13.4665 357.0288 6.7955 344.3195 2.4941 356.1085 14.7258 2.0681 339.8741 358.6775 7.4460 319.7881 38.8536 336.9408 31.6496 351.1233 329.7437 84.5186 358.0021 358.0462 19.6274 358.9297 353.6871 66.0487 33.2165 359.7686 342.8988 355.8227 27.3826 279.9150 353.8487 28.6797 358.3653 6.8142 356.4118 357.2570 12.2220 356.2015 357.9038 346.8295 19.4618 1.6244 331.2996 4.6737 0.6541 16.7630 359.4033 357.1029 350.0619 339.7327 
-5.0014 86.0053 76.1471 1.4047 0.1120 177.9267 358.2398 2.8015 357.2477 0.9150 13.4364 357.0941 6.8118 344.3497 2.4119 356.0239 14.7449 1.9998 339.7105 358.6877 7.4114 320.0165 38.8671 336.9491 31.7414 351.1259 329.6483 84.4581 358.0244 358.1738 19.5365 358.8995 353.5415 66.1594 33.1156 359.5326 342.9333 355.8175 27.3805 279.8288 353.9803 28.7383 358.4154 7.1288 356.4094 357.2458 12.5472 355.9325 357.8679 346.6266 19.3598 1.5131 331.1071 4.8330 0.6815 17.2133 359.6746 357.7313 349.6406 339.5290 
-4.8453 85.8861 75.3675 1.3663 0.2668 178.1361 358.1676 2.8673 357.2794 1.1251 13.5480 357.0975 6.8484 344.3468 2.3189 355.9619 14.7364 1.9116 339.6694 358.6887 7.3032 320.0187 38.7967 337.0755 31.7789 351.1296 329.6122 84.5289 357.9408 358.1141 19.4917 358.8780 353.3950 66.2354 33.0061 359.3807 342.9767 355.8311 27.3166 279.7880 353.8721 28.7324 358.5597 7.6249 356.4723 357.2091 12.8855 355.5981 357.8776 346.5457 19.1803 1.5132 331.1516 5.1077 0.7216 17.7437 359.7283 357.5226 349.3083 339.2823 
-4.7135 85.7587 74.6195 1.3084 0.2145 178.4314 358.2336 2.8216 357.1936 1.1743 13.5221 357.0093 6.8892 344.3420 2.2746 355.9398 14.7626 1.8700 339.6370 358.6622 7.3681 320.1658 39.0045 337.0873 31.9438 351.0753 329.6468 84.6071 357.9058 358.1303 19.5120 358.8602 353.2970 66.2729 32.8907 359.2061 343.0199 355.8382 27.3275 279.8152 354.0198 28.7612 358.7146 7.8329 356.1709 357.0754 13.2957 355.5245 357.8074 346.4267 19.0514 1.4422 330.9319 5.1307 0.7623 18.5217 359.8393 357.3710 349.0818 339.0396 
-4.5686 85.6505 73.9433 1.2571 0.1549 178.7298 358.3237 2.7499 357.1031 1.1778 13.5028 356.9218 6.8459 344.3555 2.2763 356.0111 14.7733 1.8742 339.6157 358.6429 7.5410 320.1316 39.0634 337.2309 31.8858 351.1052 329.5547 85.0041 358.0243 358.0805 19.5351 358.8425 353.3266 66.2892 32.8204 359.0274 343.1070 355.8539 27.3278 279.7378 354.1070 28.7306 358.8342 7.9871 355.9119 357.0113 13.7070 355.4520 357.6162 346.1828 18.9427 1.3885 330.8097 5.0541 0.7944 19.1842 359.9087 357.2225 348.9054 338.8450 
-4.3850 85.5658 73.3306 1.2147 0.1703 178.9547 358.2812 2.6630 357.1434 1.3165 13.6187 356.9442 6.8495 344.3453 2.2392 356.0289 14.7460 1.8306 339.6095 358.6410 7.5519 319.9057 38.9948 337.5307 31.8530 351.0878 329.3798 84.9632 358.0666 357.9375 19.5098 358.8611 353.3104 66.2714 32.7561 358.9888 343.1036 355.8776 27.2553 279.9214 354.0261 28.8189 358.9631 8.3027 355.8781 356.9828 13.8949 355.2983 357.2098 345.9071 18.7862 1.4366 330.8689 5.1568 0.8159 19.7182 359.9099 357.2556 348.5923 338.6459 
-4.2161 85.4749 72.7177 1.1334 0.0986 179.2666 358.2624 2.5073 357.1357 1.4128 13.7028 356.9244 6.8831 344.3141 2.1684 356.0448 14.7362 1.7493 339.5958 358.6591 7.5830 319.8124 39.0770 337.6529 31.9103 351.0391 329.2992 84.9037 358.1011 357.8913 19.4858 358.8401 353.2386 66.3022 32.7102 358.9053 343.0486 355.8741 27.2295 280.0147 353.8400 28.8746 359.0318 8.4749 355.8095 357.0065 14.1603 355.1214 356.9295 345.6701 18.6318 1.3728 330.8486 5.0447 0.8460 20.3474 0.1955 357.2324 348.3360 338.2471 
-4.0148 85.3907 72.0763 1.0894 0.0991 179.5081 358.2681 2.4206 357.1409 1.4968 13.7612 356.9208 6.8559 344.3071 2.1101 356.1165 14.7200 1.6966 339.5590 358.6246 7.6729 319.8005 39.2251 337.7956 32.0104 350.9799 329.2582 84.8404 358.0340 357.8894 19.4687 358.8505 353.2487 66.3571 32.5588 358.7907 343.1030 355.8780 27.2198 280.0325 353.9060 28.9855 359.1641 8.7148 355.8349 357.0000 14.4822 354.9463 356.5795 345.4672 18.4074 1.4288 330.9928 5.0860 0.8257 20.9502 0.7542 357.1787 348.1401 337.7227 
